<mxfile host="app.diagrams.net" modified="2024-07-25T11:11:18.732Z" agent="Mozilla/5.0 (Windows NT 10.0; Win64; x64) AppleWebKit/537.36 (KHTML, like Gecko) Chrome/127.0.0.0 Safari/537.36" version="24.6.4" etag="MVFCXTgrp3xmnqv2ouFS" type="github">
  <diagram name="페이지-1" id="bEqGOwVJRFGewAR_kM2I">
    <mxGraphModel>
      <root>
        <mxCell id="0" />
        <mxCell id="1" parent="0" />
      </root>
    </mxGraphModel>
  </diagram>
</mxfile>
